<svg xmlns="http://www.w3.org/2000/svg" width="420" height="86" viewBox="0 0 420 86" role="img" aria-labelledby="title desc">
  <title id="title">網站糾錯</title>
  <desc id="desc">紅色政務風格的網站糾錯圖片按鈕</desc>
  <defs>
    <linearGradient id="bg" x1="0" x2="1" y1="0" y2="1">
      <stop offset="0" stop-color="#c40010"/>
      <stop offset=".58" stop-color="#a9000d"/>
      <stop offset="1" stop-color="#7f0008"/>
    </linearGradient>
    <linearGradient id="shine" x1="0" x2="1">
      <stop offset="0" stop-color="#fff3bf" stop-opacity=".78"/>
      <stop offset=".45" stop-color="#d6a13a" stop-opacity=".45"/>
      <stop offset="1" stop-color="#fff3bf" stop-opacity=".16"/>
    </linearGradient>
  </defs>
  <rect width="420" height="86" fill="#7f0008"/>
  <rect x="3" y="3" width="414" height="80" fill="url(#bg)" stroke="#f2d486" stroke-width="2"/>
  <rect x="10" y="10" width="400" height="66" fill="none" stroke="#d9ab45" stroke-width="1"/>
  <path d="M0 61 C84 47 140 72 214 59 C282 47 344 38 420 47 L420 86 L0 86 Z" fill="#8d0009" opacity=".55"/>
  <path d="M283 18 L394 18" stroke="url(#shine)" stroke-width="4" stroke-linecap="round"/>
  <path d="M302 27 L391 27" stroke="#ffe4a1" stroke-width="1.5" stroke-linecap="round" opacity=".8"/>
  <g transform="translate(29 20)" fill="none" stroke="#fff5cf" stroke-width="3" stroke-linejoin="round">
    <rect x="0" y="2" width="40" height="46" rx="2"/>
    <path d="M10 15 H30 M10 25 H26 M10 35 H20"/>
    <circle cx="39" cy="43" r="12" fill="#a9000d" stroke="#f3cf76"/>
    <path d="M33 43 L38 48 L47 37" stroke="#ffe9a8" stroke-width="3.4" stroke-linecap="round"/>
  </g>
  <text x="94" y="41" fill="#fff8df" font-family="SimSun, Microsoft YaHei, serif" font-size="29" font-weight="700">網站糾錯</text>
  <text x="96" y="64" fill="#ffe1a1" font-family="Microsoft YaHei, SimSun, sans-serif" font-size="15" font-weight="700">內容校驗 · 連結反饋</text>
  <text x="363" y="57" fill="#fff3bf" font-family="Consolas, Courier New, monospace" font-size="28" font-weight="700">&gt;</text>
</svg>
